<?xml version="1.0" encoding="utf-8"?>
<!-- Generator: Adobe Illustrator 19.2.1, SVG Export Plug-In . SVG Version: 6.00 Build 0)  -->
<svg version="1.1" id="layer" xmlns="http://www.w3.org/2000/svg" xmlns:xlink="http://www.w3.org/1999/xlink" x="0px" y="0px"
	 viewBox="0 0 652 652" style="enable-background:new 0 0 652 652;" xml:space="preserve">
<style type="text/css">
	.st0{fill-rule:evenodd;clip-rule:evenodd;fill:#0066B3;}
</style>
<polygon class="st0" points="21.7,363.6 86.6,363.6 100.4,331.3 164.5,331.3 150.8,363.6 216.6,363.6 252.8,283.4 186.2,283.4 
	174.1,310.7 110.4,310.7 122,283.4 57.1,283.4 "/>
<path class="st0" d="M396,310.1c61.9,0,61.9,0,61.9,0c-1-13.7-13.8-22.5-39.3-26.4c-51.1-7.8-106.2-4.9-145.5,16.6
	c-31.5,17.6-33.4,43-2.9,55.6c26.6,10.7,80.6,11.7,119.9,4.9c25.6-3.9,44.2-12.7,55.1-24.4c-62.9,0-62.9,0-62.9,0
	c-7.8,5.9-18.7,8.8-31.4,9.8c-35.4,0-40.3-10.7-33.4-23.4c6.9-13.7,22.6-22.5,46.2-22.5C382.2,299.3,391.1,303.2,396,310.1z"/>
<polygon class="st0" points="557.1,283.4 529.3,343.7 621.7,343.7 614.2,363.6 453.9,363.6 490.1,283.4 "/>
</svg>
