<?xml version="1.0" encoding="utf-8"?>
<!-- Generator: Adobe Illustrator 19.2.1, SVG Export Plug-In . SVG Version: 6.00 Build 0)  -->
<svg version="1.1" id="layer" xmlns="http://www.w3.org/2000/svg" xmlns:xlink="http://www.w3.org/1999/xlink" x="0px" y="0px"
	 viewBox="0 0 652 652" style="enable-background:new 0 0 652 652;" xml:space="preserve">
<style type="text/css">
	.st0{fill:#3DB5AF;}
</style>
<path class="st0" d="M526.2,310.1c2.2,2.3,4.4,4.8,6.3,7.6c7.5,10.6,12.4,23.8,14.2,38.2h-8.7c-2.2-16.3-8.8-30.3-17.8-39.6
	C522,314.1,524,312,526.2,310.1 M515.5,322.5c-1.7,2.6-3.2,5.3-4.4,8.1c5.2,6.5,9,15.3,10.8,25.3h8.8c-1.7-10.7-5.5-20.6-11.2-28.6
	C518.2,325.6,516.9,324,515.5,322.5 M505.7,355.9h8.8c-1.3-6.1-3.5-11.7-6.5-16.6C506.4,344.5,505.7,350.1,505.7,355.9 M601,306.5
	c-1.1-0.8-2.3-1.6-3.5-2.4c-0.5,0.6-1.1,1.2-1.6,1.8c-7,7.9-14.9,19.9-19.1,36.8c-1.3-6.8-3.1-13.4-5.4-19.7
	c4.6-10.3,10.2-18.3,15.4-24.2c-1.4-0.5-2.8-1-4.3-1.4c-4.5,5.3-9.2,12-13.2,20.3c-2.9-6.9-6.5-13.3-10.6-19.1
	c-0.7-0.9-1.4-1.9-2.1-2.8c-3.2,0.5-6.3,1.3-9.3,2.2c7.2,8.4,13.1,19.2,17.2,31.4c-1.5,4.3-2.8,8.9-3.8,13.9
	c-2.8-13.1-8-25.1-15.1-35.1c-1.8-2.6-3.7-4.9-5.7-7.1c-2.7,1.3-5.3,2.8-7.7,4.5c11.4,11.7,19.5,29.7,21.8,50.4h9
	c0.7-7,1.9-13.5,3.6-19.3c1.6,6.2,2.7,12.6,3.4,19.3h8.7c2.6-22.7,12.1-38,20.4-47.2C599.7,307.9,600.3,307.2,601,306.5
	 M612.4,317.3c-0.9-1.1-1.8-2.2-2.8-3.2c-9.3,9.6-17,23.5-19.5,41.8h4.2c2.5-17.7,10.1-29.8,16.7-37.1
	C611.5,318.2,611.9,317.8,612.4,317.3 M605.9,355.9h4.2c2-11,6.5-19,10.8-24.6c-0.6-1.4-1.3-2.8-2-4.2
	C612.9,334.3,607.9,343.9,605.9,355.9 M625.2,346c-1.4,3-2.6,6.2-3.5,9.8h4.2C626,352.5,625.8,349.2,625.2,346 M245.5,297.4h-13
	v58.5h35.7v-11.5h-22.7V297.4z M340,297.4h-4.7v58.5h31.1v-4.3H340V297.4z M371.8,355.9h4.7v-58.5h-4.7V355.9z M452.5,351.6V328H478
	v-4.2h-25.6v-22.2H480v-4.3h-32.2v58.5h33.1v-4.3H452.5z M432.1,351.6h-1l-33.5-54.2h-8.5v58.5h4.7v-54.2h1.1l33.5,54.2h8.3v-58.5
	h-4.7V351.6z M84.7,344.3h-1L74.2,299H60.7l-8.5,45.3h-1.3l-11.6-46.9H26l14.3,58.5h19.9l7.2-35.6l7.7,35.6h20.3l12.7-58.5H94.7
	L84.7,344.3z M311.6,334.4c1.7-4.6,1.6-11.5,0-16.1c-1.6-4.3-4.7-7.3-9-8.8c-2.2-0.7-4.6-1.1-7.4-1.1h-8.7v36.3h8.7
	c2.7,0,5.2-0.4,7.4-1.2C306.9,341.8,310,338.7,311.6,334.4 M318.5,305.6c5.3,5.3,7.8,12.5,7.8,20c0.1,4.2-0.4,8.3-1.9,12.3
	c-2.8,7.2-8.4,12.9-15.7,15.9c-3.9,1.6-8.5,2.4-13.7,2.4h-21.5v-59.3H295C304.3,296.9,312.4,299.5,318.5,305.6 M139.3,345.5
	c10.9,0,17.3-8.7,17.3-18.9c0-12.2-7.7-18.9-17.3-18.9c-11.4,0-17.3,8.4-17.3,18.9C121.9,336.8,128.3,345.5,139.3,345.5
	 M152.6,298.3c3.9,1.7,7.1,4,9.7,6.9c5.5,6,8.2,14.2,7.8,22.2c-0.1,11.2-6.8,22.5-17.2,27.3c-7.4,3.7-19.9,3.7-27.3,0
	c-10.5-4.8-17.1-16.1-17.2-27.3c-0.1-4.3,0.4-8.4,1.9-12.5c2.7-7.4,8.2-13.3,15.5-16.6C133.2,294.8,145.3,294.8,152.6,298.3
	 M208.4,322.4c1.6-2.7,1.6-7.2,0-9.8c-0.8-1.4-1.9-2.5-3.3-3.3c-1.4-0.8-3-0.8-4.9-0.8h-10.4v18.4h10.4
	C203.8,326.8,206.7,325.4,208.4,322.4 M220.2,328.6c-1.9,2.8-4.6,4.9-8,6.3l14.8,20.9h-15.1l-12.3-18.1c-0.3,0-9.6,0-9.8,0v18.1h-13
	v-58.9h22.7c8.4,0.1,16.2,2.1,20.7,8.8c1.9,2.9,2.9,6.5,2.9,10.9C223.3,321,222.4,325.6,220.2,328.6"/>
</svg>
